<svg viewBox="0 0 24 24" fill="none" xmlns="http://www.w3.org/2000/svg">
<path d="M8.4 19.2h.18c1.512 0 2.268 0 2.846-.294a2.7 2.7 0 0 0 1.18-1.18c.294-.578.294-1.334.294-2.846V9.12c0-1.512 0-2.268-.294-2.846a2.7 2.7 0 0 0-1.18-1.18C10.848 4.8 10.092 4.8 8.58 4.8H8.4m0 14.4a1.8 1.8 0 1 1-3.6 0 1.8 1.8 0 0 1 3.6 0Zm0-14.4a1.8 1.8 0 1 1-3.6 0 1.8 1.8 0 0 1 3.6 0Zm9 7.2h-9m9 0a1.8 1.8 0 1 0 3.6 0 1.8 1.8 0 0 0-3.6 0Zm-9 0a1.8 1.8 0 1 1-3.6 0 1.8 1.8 0 0 1 3.6 0Z" stroke="black" stroke-width="2" stroke-linecap="round" stroke-linejoin="round" />
</svg>
