<svg viewBox="0 0 24 24" fill="none" xmlns="http://www.w3.org/2000/svg">
  <path fill="black" d="M6.17 2.25c-.53 0-.98 0-1.34.03-.38.03-.74.1-1.08.27-.52.26-.94.68-1.2 1.2-.17.34-.24.7-.27 1.08-.03.36-.03.8-.03 1.34v8.25c-.46.22-.8.63-.94 1.13-.06.22-.06.48-.06.72v.16c0 .52 0 .93.1 1.28.25.95.99 1.7 1.94 1.95a2.93 2.93 0 0 0 .59.05l.94.01a360.81 360.81 0 0 0 7.18.03.75.75 0 0 0 0-1.5H7.6a355.56 355.56 0 0 1-3.95-.06h-.02c-.41-.12-.73-.45-.84-.87a4.66 4.66 0 0 1-.04-.99 8.23 8.23 0 0 1 0-.4.25.25 0 0 1 .14-.15 24.8 24.8 0 0 1 1.31-.02h3.1l4.7-.01a.75.75 0 0 0 0-1.5H7.3a888 888 0 0 0-3.55.02V6.2c0-.57 0-.96.02-1.25.03-.29.07-.43.12-.52.12-.23.3-.42.54-.54.1-.05.23-.1.52-.12.3-.02.68-.02 1.25-.02h11.6c.57 0 .96 0 1.25.02.29.03.43.07.52.12.23.12.42.3.54.54.05.1.1.23.12.52.02.3.02.68.02 1.25a.75.75 0 0 0 1.5 0v-.03c0-.53 0-.98-.03-1.34a2.8 2.8 0 0 0-.27-1.08 2.75 2.75 0 0 0-1.2-1.2 2.8 2.8 0 0 0-1.08-.27c-.36-.03-.8-.03-1.34-.03H6.17Z"/>
  <path fill="black" d="M19 16.5c-.54 0-1.04.43-1.04 1.02 0 .6.5 1.03 1.04 1.03s1.04-.43 1.04-1.03c0-.59-.5-1.02-1.04-1.02Z"/>
  <path fill="black" fill-rule="evenodd" d="M16.8 8.25c-.3 0-.56 0-.78.02-.24.02-.48.06-.73.18-.35.17-.64.45-.83.8-.13.24-.17.5-.2.72l-.01.76v7.54c0 .28 0 .54.02.76.02.23.06.48.2.72a1.87 1.87 0 0 0 1.55.98c.22.02.48.02.78.02h4.4c.3 0 .56 0 .78-.02.24-.02.48-.06.73-.18.35-.17.64-.45.83-.8.13-.24.17-.5.2-.72l.01-.76v-7.54c0-.28 0-.54-.02-.76a1.84 1.84 0 0 0-.2-.72 1.87 1.87 0 0 0-1.55-.98c-.22-.02-.48-.02-.78-.02h-4.4Zm-.85 1.54s.04-.02.19-.03a10 10 0 0 1 .69-.01h4.34a9.99 9.99 0 0 1 .88.04c.07.04.13.1.16.16l.03.15.01.66v7.48a8.83 8.83 0 0 1-.04.8c0 .01 0 .01 0 0a.37.37 0 0 1-.16.17s-.04.02-.19.03l-.69.01h-4.34l-.7-.01c-.14-.01-.17-.03-.18-.03a.37.37 0 0 1-.16-.16l-.03-.15a8.83 8.83 0 0 1-.01-.66v-7.48a8.83 8.83 0 0 1 .04-.8c0-.01 0-.01 0 0 .03-.07.09-.13.16-.17Z" clip-rule="evenodd"/>
</svg>