<svg viewBox="0 0 24 24" fill="none" xmlns="http://www.w3.org/2000/svg">
<path d="M12.0416 17.5H12.0512M13.3333 22H8.39992C7.32648 22 6.78977 22 6.37977 21.782C6.01913 21.5903 5.72591 21.2843 5.54216 20.908C5.33325 20.4802 5.33325 19.9201 5.33325 18.8V5.2C5.33325 4.0799 5.33325 3.51984 5.54216 3.09202C5.72591 2.71569 6.01913 2.40973 6.37977 2.21799C6.78977 2 7.32648 2 8.39992 2H15.6833C16.7567 2 17.2934 2 17.7034 2.21799C18.064 2.40973 18.3573 2.71569 18.541 3.09202C18.7499 3.51984 18.7499 4.07989 18.7499 5.2V13M12.5208 17.5C12.5208 17.7761 12.3062 18 12.0416 18C11.7769 18 11.5624 17.7761 11.5624 17.5C11.5624 17.2239 11.7769 17 12.0416 17C12.3062 17 12.5208 17.2239 12.5208 17.5Z" stroke="black" stroke-width="2" stroke-linecap="round" stroke-linejoin="round"/>
<path d="M16.1458 16L20.9374 21M20.9374 16L16.1458 21" stroke="black" stroke-width="2" stroke-linecap="round" stroke-linejoin="round"/>
</svg>